<?xml version="1.0" standalone="no"?>
<!DOCTYPE svg PUBLIC "-//W3C//DTD SVG 20010904//EN"
 "http://www.w3.org/TR/2001/REC-SVG-20010904/DTD/svg10.dtd">
<svg version="1.0" xmlns="http://www.w3.org/2000/svg"
 width="512.000000pt" height="512.000000pt" viewBox="0 0 512.000000 512.000000"
 preserveAspectRatio="xMidYMid meet">

<g transform="translate(0.000000,512.000000) scale(0.100000,-0.100000)"
fill="#000000" stroke="none">
<path d="M1193 4230 c-204 -37 -373 -183 -440 -380 l-22 -65 -69 -6 c-364 -34
-455 -531 -127 -696 74 -38 134 -43 479 -43 l334 0 -14 -48 c-8 -26 -22 -86
-32 -132 l-17 -85 -40 5 c-22 3 -94 5 -160 4 -108 0 -130 -4 -215 -33 -214
-73 -373 -216 -470 -425 -142 -302 -89 -637 139 -879 166 -176 325 -242 612
-254 l146 -6 12 -45 c15 -57 71 -142 117 -177 19 -14 60 -38 92 -53 l57 -27
600 -3 c641 -3 687 -1 782 45 77 36 164 121 204 198 l34 65 335 0 c366 0 471
10 606 55 258 87 475 286 579 533 52 125 67 195 72 344 8 221 -35 377 -153
555 l-62 92 32 21 c52 32 125 116 152 175 75 163 45 345 -78 480 -65 71 -170
125 -260 133 l-63 5 -45 70 c-25 38 -71 91 -102 117 -231 194 -556 182 -768
-28 -37 -37 -72 -76 -78 -87 -10 -18 -13 -17 -69 21 -141 98 -299 167 -473
205 -85 19 -135 24 -260 23 -164 0 -252 -13 -398 -59 l-74 -24 -47 29 c-54 33
-140 60 -191 60 -35 0 -40 5 -78 63 -103 158 -261 250 -450 261 -42 3 -101 1
-129 -4z m218 -169 c113 -36 199 -111 258 -228 29 -59 57 -74 142 -79 89 -6
113 -16 78 -34 -47 -25 -174 -124 -235 -186 -75 -75 -168 -197 -209 -276 l-30
-58 -380 0 c-346 0 -384 2 -420 19 -157 71 -168 290 -18 378 41 24 57 27 123
26 74 -1 114 10 138 40 7 8 21 48 31 90 11 42 27 90 37 108 24 47 109 134 160
164 94 55 218 69 325 36z m1284 -322 c136 -17 229 -44 345 -100 242 -117 397
-272 516 -514 82 -167 95 -176 273 -180 145 -4 244 -26 356 -80 93 -44 201
-130 266 -208 59 -72 140 -234 165 -327 23 -86 23 -270 1 -363 -80 -327 -362
-571 -703 -607 -54 -6 -234 -9 -398 -8 l-299 3 -14 59 c-40 177 -179 307 -363
338 l-72 12 -35 55 c-77 121 -223 222 -361 250 -68 14 -176 14 -244 0 -180
-37 -359 -197 -417 -372 l-21 -64 -71 -10 c-136 -21 -244 -100 -297 -216 l-27
-59 -140 5 c-159 6 -230 22 -330 72 -240 121 -379 401 -332 670 61 344 380
576 725 526 69 -10 85 -10 121 5 66 26 97 70 111 156 59 365 234 634 528 807
208 124 476 179 717 150z m1267 -10 c106 -35 182 -99 240 -203 45 -81 68 -95
156 -101 120 -8 196 -53 248 -147 25 -45 29 -64 29 -128 0 -60 -5 -85 -25
-123 -27 -53 -74 -100 -125 -124 -33 -16 -33 -15 -98 31 -149 106 -325 165
-520 174 l-118 5 -31 61 c-44 87 -126 212 -191 288 l-56 66 28 43 c93 148 293
216 463 158z m-1607 -1825 c113 -29 206 -105 265 -215 17 -33 42 -66 55 -75
13 -9 55 -17 97 -20 169 -10 278 -122 278 -283 -1 -98 -59 -189 -154 -239
l-51 -27 -605 -3 c-419 -2 -617 0 -643 8 -48 14 -103 62 -129 113 -16 32 -19
54 -16 103 5 78 42 137 108 174 38 21 57 24 122 23 112 -2 136 16 164 123 24
94 56 154 115 213 105 105 249 143 394 105z"/>
<path d="M2441 3624 c-35 -45 -24 -96 26 -122 34 -18 52 -14 84 17 34 35 37
68 8 105 -16 20 -29 26 -59 26 -30 0 -43 -6 -59 -26z"/>
<path d="M2222 3580 c-263 -94 -504 -335 -608 -608 -40 -105 -42 -135 -9 -167
50 -51 113 -25 141 57 84 254 269 458 500 553 77 31 114 64 114 100 0 28 -36
71 -65 79 -11 3 -44 -3 -73 -14z"/>
</g>
</svg>
